<svg version="1.2" xmlns="http://www.w3.org/2000/svg" viewBox="0 0 22 23" width="22" height="23"><defs><linearGradient id="P" gradientUnits="userSpaceOnUse"/><linearGradient id="g1" x2="1" href="#P" gradientTransform="matrix(0,2.753,-7.674,0,10.565,1.616)"><stop stop-color="#ffd986"/><stop offset="1" stop-color="#fabf3e"/></linearGradient><linearGradient id="g2" x2="1" href="#P" gradientTransform="matrix(0,17.038,-18.683,0,10.579,4.354)"><stop stop-color="#ffd986"/><stop offset="1" stop-color="#fabf3e"/></linearGradient><linearGradient id="g3" x2="1" href="#P" gradientTransform="matrix(-7.48,15.334,-9.845,-4.802,18.94,6.058)"><stop stop-color="#ffd984"/><stop offset="1" stop-color="#f5b42a"/></linearGradient></defs><style>.a{fill:url(#g1)}.b{fill:url(#g2)}.c{fill:url(#g3)}.d{fill:#fff9e2}.e{fill:#fff}.f{fill:#ffe5ac}.g{fill:#fff6e1}</style><path class="a" d="m13.2 1.6h-5.3c-0.6 0-1.2 0.6-1.2 1.2v1.6h1.2v-1.3c0-0.2 0.1-0.3 0.3-0.3h4.8c0.1 0 0.2 0.1 0.2 0.2v1.4h1.2v-1.6c0-0.7-0.5-1.2-1.2-1.2z"/><path class="b" d="m1.2 13.5l1.6 7c0.2 0.5 0.6 0.9 1.2 0.9h13.2c0.5 0 1-0.4 1.1-1l1.6-6.9v-1.8l-1.6-6.4c-0.1-0.6-0.6-0.9-1.1-0.9h-13.2c-0.6 0-1.1 0.4-1.2 0.9l-1.6 7z"/><path class="c" d="m18.3 5.3c-0.1-0.6-0.6-0.9-1.1-0.9h-0.2q0.1 0.1 0.1 0.3l1.2 4.6c0.3 1.2 0.7 2.4 0.4 3.6-1 4.6-5.1 7.9-9.9 7.9q-2.9 0-5.8 0c0.2 0.4 0.6 0.6 1 0.6h13.2c0.5 0 1-0.4 1.1-1l1.6-6.9v-1.8z"/><path class="d" d="m10.6 9.9c-0.4 0-0.6-0.2-0.6-0.6v-2c0-0.3 0.2-0.6 0.6-0.6 0.3 0 0.6 0.3 0.6 0.6v2c0 0.3-0.3 0.6-0.6 0.6z"/><path class="d" d="m14.8 9.9c-0.3 0-0.5-0.2-0.6-0.4l-0.6-2c-0.1-0.3 0.1-0.7 0.4-0.8 0.3-0.1 0.7 0.1 0.7 0.4l0.6 2c0.1 0.4 0 0.7-0.4 0.8q0 0-0.1 0z"/><path class="d" d="m6.4 9.9q-0.1 0-0.2 0c-0.3-0.1-0.5-0.4-0.4-0.7l0.6-2c0.1-0.4 0.4-0.5 0.7-0.4 0.4 0 0.5 0.4 0.4 0.7l-0.6 2c0 0.3-0.3 0.4-0.5 0.4z"/><path class="d" d="m10.6 18.7c-0.3 0-0.6-0.2-0.6-0.6v-2c0-0.3 0.3-0.6 0.6-0.6 0.3 0 0.6 0.3 0.6 0.6v2c0 0.4-0.3 0.6-0.6 0.6z"/><path class="d" d="m14.2 18.7q-0.1 0-0.2 0c-0.3-0.1-0.5-0.4-0.4-0.7l0.6-2c0.1-0.4 0.4-0.5 0.8-0.5 0.3 0.1 0.5 0.5 0.4 0.8l-0.6 2c-0.1 0.3-0.4 0.4-0.6 0.4z"/><path class="d" d="m7 18.7c-0.3 0-0.5-0.1-0.6-0.4l-0.6-2c-0.1-0.3 0.1-0.6 0.4-0.7 0.3-0.1 0.7 0 0.8 0.4l0.6 2c0.1 0.3-0.1 0.6-0.4 0.7q-0.1 0-0.2 0z"/><path class="e" d="m20.1 13.5h-19.1c-0.2 0-0.4-0.2-0.4-0.4v-1c0-0.2 0.2-0.4 0.4-0.4h19.1c0.2 0 0.4 0.1 0.4 0.4v1c0 0.2-0.2 0.4-0.4 0.4z"/><path class="f" d="m12.3 13.9h-3.5c-0.2 0-0.4-0.2-0.4-0.4v-1.9c0-0.2 0.2-0.4 0.4-0.4h3.5c0.2 0 0.4 0.2 0.4 0.4v1.9c0 0.2-0.2 0.4-0.4 0.4z"/><path class="g" d="m12.3 11.2h-0.8c0 1.2-0.9 2.1-2.1 2.1h-1v0.2c0 0.2 0.2 0.4 0.4 0.4h3.5c0.2 0 0.4-0.2 0.4-0.4v-1.9c0-0.2-0.2-0.4-0.4-0.4z"/></svg>